<svg width="96" height="96" viewBox="0 0 96 96" fill="none" xmlns="http://www.w3.org/2000/svg">
  <rect width="96" height="96" fill="#051F21"/>
  <path d="M28.2354 74.2202V67.9039C29.6419 68.4369 31.3724 68.7055 33.4311 68.7055C35.3235 68.7055 36.8153 68.2396 37.8979 67.3079C38.9805 66.3762 39.9566 64.8695 40.8218 62.792L42.6887 58.3139L29.8976 29.2879C35.0038 29.2879 39.6028 32.3307 41.5294 36.9893L47.0746 50.3985L56.0126 28.6038C57.9221 23.9452 62.5168 20.894 67.6187 20.894L50.0795 63.5936C48.4556 67.5933 46.5205 70.5102 44.2743 72.3484C42.0281 74.1867 39.1169 75.1058 35.5451 75.1058C32.6212 75.1058 30.1875 74.812 28.2354 74.2244V74.2202Z" fill="#53E399"/>
</svg>
